<!-- Created with PixiEditor (https://pixieditor.net) -->
<svg version="1.1" viewBox="0 0 60 60" xmlns="http://www.w3.org/2000/svg">
  <path d="M15.914 4.6592L15.914 17.9012C15.914 19.2542 17.102 20.3432 18.579 20.3432L36.487 20.3432C37.964 20.3432 39.153 19.2542 39.153 17.9012L39.153 4.6592" fill-rule="nonzero" transform="matrix(0.97845, 8.5538815E-08, 8.5538815E-08, -0.97845, 3.0602722, 59.748108)" fill="#babec3" fill-opacity="1" stroke="#000000" stroke-width="2.5550999641418457" stroke-linecap="round" stroke-linejoin="round" opacity="1" id="path655" />
  <path d="M36.4745 8.0607C37.2328 8.0607 37.8443 8.67126 37.8443 9.42965L37.8443 15.5382C37.8443 16.2965 37.2328 16.9071 36.4745 16.9071L32.7681 16.9071C32.0088 16.9071 31.3983 16.2965 31.3983 15.5382L31.3983 9.42965C31.3983 8.67126 32.0088 8.0607 32.7681 8.0607L36.4745 8.0607L36.4745 8.0607Z" fill-rule="nonzero" transform="matrix(-1, -8.742278E-08, 8.742278E-08, -1, 60, 60.000004)" fill="#000000" fill-opacity="1" stroke="#918b8b" stroke-width="1.25" stroke-linecap="round" stroke-linejoin="round" opacity="1" id="rect656" />
  <path d="M7.68155 4.68538C6.53311 4.68538 5.60855 5.60994 5.60855 6.75838L5.60855 53.2392C5.60855 54.3876 6.53311 55.3122 7.68155 55.3122L52.3163 55.3122C53.4648 55.3122 54.3893 54.3876 54.3893 53.2392L54.3893 11.5201L47.5215 4.6859L7.68155 4.6859L7.68155 4.68538Z" fill-rule="nonzero" transform="matrix(-1, -8.742278E-08, 8.742277E-08, -0.99999994, 60, 59.998795)" fill="#0a03a5" fill-opacity="1" stroke="#ffffff" stroke-width="0" stroke-linecap="round" stroke-linejoin="round" opacity="1" id="path646" />
  <path d="M15.914 4.6592L15.914 17.9012C15.914 19.2542 17.102 20.3432 18.579 20.3432L36.487 20.3432C37.964 20.3432 39.153 19.2542 39.153 17.9012L39.153 4.6592" fill-rule="nonzero" transform="matrix(0.97845, 8.5538815E-08, 8.5538815E-08, -0.97845, 3.0602722, 59.748108)" fill="#babec3" fill-opacity="1" stroke="#000000" stroke-width="2.5550999641418457" stroke-linecap="round" stroke-linejoin="round" opacity="1" id="path655" />
  <path d="M36.4745 8.0607C37.2328 8.0607 37.8443 8.67126 37.8443 9.42965L37.8443 15.5382C37.8443 16.2965 37.2328 16.9071 36.4745 16.9071L32.7681 16.9071C32.0088 16.9071 31.3983 16.2965 31.3983 15.5382L31.3983 9.42965C31.3983 8.67126 32.0088 8.0607 32.7681 8.0607L36.4745 8.0607L36.4745 8.0607Z" fill-rule="nonzero" transform="matrix(-1, -8.742278E-08, 8.742278E-08, -1, 60, 60.000004)" fill="#000000" fill-opacity="1" stroke="#ffffff" stroke-width="1.25" stroke-linecap="round" stroke-linejoin="round" opacity="1" id="rect656" />
  <g opacity="1" id="g1077">
    <path d="M15.914 4.6592L15.914 17.9012C15.914 19.2542 17.102 20.3432 18.579 20.3432L36.487 20.3432C37.964 20.3432 39.153 19.2542 39.153 17.9012L39.153 4.6592" fill-rule="nonzero" transform="matrix(0.97845, 8.5538815E-08, 8.5538815E-08, -0.97845, 3.0602722, 59.748108)" fill="#babec3" fill-opacity="1" stroke="#000000" stroke-width="2.5550999641418457" stroke-linecap="round" stroke-linejoin="round" opacity="1" id="path655" />
    <path d="M36.4745 8.0607C37.2328 8.0607 37.8443 8.67126 37.8443 9.42965L37.8443 15.5382C37.8443 16.2965 37.2328 16.9071 36.4745 16.9071L32.7681 16.9071C32.0088 16.9071 31.3983 16.2965 31.3983 15.5382L31.3983 9.42965C31.3983 8.67126 32.0088 8.0607 32.7681 8.0607L36.4745 8.0607L36.4745 8.0607Z" fill-rule="nonzero" transform="matrix(-1, -8.742278E-08, 8.742278E-08, -1, 60, 60.000004)" fill="#000000" fill-opacity="1" stroke="#918b8b" stroke-width="1.25" stroke-linecap="round" stroke-linejoin="round" opacity="1" id="rect656" />
  </g>
  <path d="M7.68155 4.68538C6.53311 4.68538 5.60855 5.60994 5.60855 6.75838L5.60855 53.2392C5.60855 54.3876 6.53311 55.3122 7.68155 55.3122L52.3163 55.3122C53.4648 55.3122 54.3893 54.3876 54.3893 53.2392L54.3893 11.5201L47.5215 4.6859L7.68155 4.6859L7.68155 4.68538Z" fill-rule="nonzero" transform="matrix(-0.99999994, 0.00017473407, -0.00017474408, -0.99999994, 60.00524, 59.993546)" fill="#ffffff" fill-opacity="0" stroke="#000000" stroke-width="3.009999990463257" stroke-linecap="round" stroke-linejoin="round" opacity="1" id="path659" />
  <path d="M13.994 25.824C12.966 25.824 12.139 26.651 12.139 27.679L12.139 47.718C12.139 48.746 12.966 49.573 13.994 49.573L46.006 49.573C47.034 49.573 47.861 48.746 47.861 47.718L47.861 27.679C47.861 26.651 47.034 25.824 46.006 25.824L13.994 25.824L13.994 25.824Z" fill-rule="nonzero" transform="matrix(-1, -8.742278E-08, 8.742278E-08, -1, 59.999996, 60)" fill="#d9dddf" fill-opacity="1" stroke="#000000" stroke-width="2.5" stroke-linecap="round" stroke-linejoin="round" opacity="1" id="rect731" />
</svg>